<!-- Favicon. The ring and the rounded corners are dropped: at 16px they turn to
     mush and the braces are what carries recognition. -->
<svg xmlns="http://www.w3.org/2000/svg" viewBox="0 0 96 96" width="96" height="96">
  <rect width="96" height="96" rx="14" fill="#0C1124"/>
  <g fill="none" stroke-width="7" stroke-linecap="round" stroke-linejoin="round">
    <path d="M37 20 C31 20 29 23 29 29 L29 41 C29 45 26 48 22 48 C26 48 29 51 29 55 L29 67 C29 73 31 76 37 76" stroke="#FFFFFF"/>
    <path d="M59 20 C65 20 67 23 67 29 L67 41 C67 45 70 48 74 48 C70 48 67 51 67 55 L67 67 C67 73 65 76 59 76" stroke="#8B9BFF"/>
  </g>
  <circle cx="48" cy="48" r="7.5" fill="#3D5AFE"/>
</svg>
