<svg xmlns="http://www.w3.org/2000/svg" viewBox="0 0 1200 630" width="1200" height="630">
{{SURFACE}}
  <g fill="none" stroke="rgba(93,120,255,0.28)" stroke-width="1.5">
    <path d="M88 88 L88 150" /><path d="M88 88 L150 88"/>
    <path d="M1112 542 L1112 480"/><path d="M1112 542 L1050 542"/>
  </g>

  <text x="88" y="196" font-family="{{MONO}}" font-size="20" fill="#8B9BFF"
        letter-spacing="3.2">{{KICKER}}</text>

  <g font-family="{{SANS}}" font-weight="700" font-size="{{TITLESIZE}}" fill="#FFFFFF" letter-spacing="-1">
    <text x="88" y="288">{{LINE1}}</text>
    <text x="88" y="{{Y2}}">{{LINE2}}</text>
    <text x="88" y="{{Y3}}" fill="#A5B2FF">{{LINE3}}</text>
  </g>

  <line x1="88" y1="506" x2="1112" y2="506" stroke="rgba(93,120,255,0.2)" stroke-width="1.5"/>

  <g transform="translate(88,532) scale(0.46)">
    <rect width="96" height="96" rx="20" fill="#0C1124" stroke="rgba(93,120,255,0.22)" stroke-width="1.5"/>
    <g fill="none" stroke-width="5" stroke-linecap="round" stroke-linejoin="round">
      <path d="M36 18 C30 18 28 21 28 27 L28 40 C28 45 25 48 21 48 C25 48 28 51 28 56 L28 69 C28 75 30 78 36 78" stroke="#FFFFFF"/>
      <path d="M60 18 C66 18 68 21 68 27 L68 40 C68 45 71 48 75 48 C71 48 68 51 68 56 L68 69 C68 75 66 78 60 78" stroke="#8B9BFF"/>
    </g>
    <circle cx="48" cy="48" r="6" fill="#3D5AFE"/>
  </g>
  <text x="142" y="562" font-family="{{MONO}}" font-size="21" fill="#E8ECF7">{{SITE}}</text>
  <text x="1112" y="562" font-family="{{MONO}}" font-size="19" fill="#6E7893" text-anchor="end">{{READTIME}}</text>
</svg>
